<svg width="150" height="50" viewBox="0 0 179 70" fill="none" xmlns="http://www.w3.org/2000/svg">
<path d="M71.5909 48.4091C70.4848 48.4091 69.4811 48.2008 68.5795 47.7841C67.678 47.3598 66.9621 46.75 66.4318 45.9545C65.9015 45.1515 65.6364 44.1818 65.6364 43.0455C65.6364 42.0455 65.8333 41.2348 66.2273 40.6136C66.6212 39.9848 67.1477 39.4924 67.8068 39.1364C68.4659 38.7803 69.1932 38.5152 69.9886 38.3409C70.7917 38.1591 71.5985 38.0152 72.4091 37.9091C73.4697 37.7727 74.3295 37.6705 74.9886 37.6023C75.6553 37.5265 76.1402 37.4015 76.4432 37.2273C76.7538 37.053 76.9091 36.75 76.9091 36.3182V36.2273C76.9091 35.1061 76.6023 34.2348 75.9886 33.6136C75.3826 32.9924 74.4621 32.6818 73.2273 32.6818C71.947 32.6818 70.9432 32.9621 70.2159 33.5227C69.4886 34.0833 68.9773 34.6818 68.6818 35.3182L66.1364 34.4091C66.5909 33.3485 67.197 32.5227 67.9545 31.9318C68.7197 31.3333 69.553 30.9167 70.4545 30.6818C71.3636 30.4394 72.2576 30.3182 73.1364 30.3182C73.697 30.3182 74.3409 30.3864 75.0682 30.5227C75.803 30.6515 76.5114 30.9205 77.1932 31.3295C77.8826 31.7386 78.4545 32.3561 78.9091 33.1818C79.3636 34.0076 79.5909 35.1136 79.5909 36.5V48H76.9091V45.6364H76.7727C76.5909 46.0152 76.2879 46.4205 75.8636 46.8523C75.4394 47.2841 74.875 47.6515 74.1705 47.9545C73.4659 48.2576 72.6061 48.4091 71.5909 48.4091ZM72 46C73.0606 46 73.9545 45.7917 74.6818 45.375C75.4167 44.9583 75.9697 44.4205 76.3409 43.7614C76.7197 43.1023 76.9091 42.4091 76.9091 41.6818V39.2273C76.7955 39.3636 76.5455 39.4886 76.1591 39.6023C75.7803 39.7083 75.3409 39.803 74.8409 39.8864C74.3485 39.9621 73.8674 40.0303 73.3977 40.0909C72.9356 40.1439 72.5606 40.1894 72.2727 40.2273C71.5758 40.3182 70.9242 40.4659 70.3182 40.6705C69.7197 40.8674 69.2348 41.1667 68.8636 41.5682C68.5 41.9621 68.3182 42.5 68.3182 43.1818C68.3182 44.1136 68.6629 44.8182 69.3523 45.2955C70.0492 45.7652 70.9318 46 72 46ZM96.6676 24.7273V48H93.8494V24.7273H96.6676ZM110.955 48V30.5455H113.545V33.1818H113.727C114.045 32.3182 114.621 31.6174 115.455 31.0795C116.288 30.5417 117.227 30.2727 118.273 30.2727C118.47 30.2727 118.716 30.2765 119.011 30.2841C119.307 30.2917 119.53 30.303 119.682 30.3182V33.0455C119.591 33.0227 119.383 32.9886 119.057 32.9432C118.739 32.8902 118.402 32.8636 118.045 32.8636C117.197 32.8636 116.439 33.0417 115.773 33.3977C115.114 33.7462 114.591 34.2311 114.205 34.8523C113.826 35.4659 113.636 36.1667 113.636 36.9545V48H110.955Z" fill="black"/>
<path d="M105 62C163 72 259.5 -31.5 2 24M149 27.5C138.2 28.3 137.167 29.5 138 30" stroke="white" stroke-width="14"/>
</svg>
